<svg width="24" height="24" viewBox="0 0 24 24" fill="none" xmlns="http://www.w3.org/2000/svg">
<path d="M13 12.175L15.25 14.425C15.4333 14.6083 15.525 14.8377 15.525 15.113C15.525 15.3877 15.4333 15.625 15.25 15.825C15.05 16.025 14.8127 16.125 14.538 16.125C14.2627 16.125 14.025 16.025 13.825 15.825L11.7 13.7C11.4667 13.4667 11.2917 13.2083 11.175 12.925C11.0583 12.6417 11 12.3333 11 12V9C11 8.71667 11.096 8.479 11.288 8.287C11.4793 8.09567 11.7167 8 12 8C12.2833 8 12.521 8.09567 12.713 8.287C12.9043 8.479 13 8.71667 13 9V12.175ZM12 4C12.2833 4 12.521 4.09567 12.713 4.287C12.9043 4.479 13 4.71667 13 5C13 5.28333 12.9043 5.521 12.713 5.713C12.521 5.90433 12.2833 6 12 6C11.7167 6 11.4793 5.90433 11.288 5.713C11.096 5.521 11 5.28333 11 5C11 4.71667 11.096 4.479 11.288 4.287C11.4793 4.09567 11.7167 4 12 4ZM20 12C20 12.2833 19.904 12.5207 19.712 12.712C19.5207 12.904 19.2833 13 19 13C18.7167 13 18.4793 12.904 18.288 12.712C18.096 12.5207 18 12.2833 18 12C18 11.7167 18.096 11.479 18.288 11.287C18.4793 11.0957 18.7167 11 19 11C19.2833 11 19.5207 11.0957 19.712 11.287C19.904 11.479 20 11.7167 20 12ZM12 18C12.2833 18 12.521 18.096 12.713 18.288C12.9043 18.4793 13 18.7167 13 19C13 19.2833 12.9043 19.5207 12.713 19.712C12.521 19.904 12.2833 20 12 20C11.7167 20 11.4793 19.904 11.288 19.712C11.096 19.5207 11 19.2833 11 19C11 18.7167 11.096 18.4793 11.288 18.288C11.4793 18.096 11.7167 18 12 18ZM6 12C6 12.2833 5.90433 12.5207 5.713 12.712C5.521 12.904 5.28333 13 5 13C4.71667 13 4.479 12.904 4.287 12.712C4.09567 12.5207 4 12.2833 4 12C4 11.7167 4.09567 11.479 4.287 11.287C4.479 11.0957 4.71667 11 5 11C5.28333 11 5.521 11.0957 5.713 11.287C5.90433 11.479 6 11.7167 6 12ZM12 22C10.6167 22 9.31667 21.7373 8.1 21.212C6.88333 20.6873 5.825 19.975 4.925 19.075C4.025 18.175 3.31267 17.1167 2.788 15.9C2.26267 14.6833 2 13.3833 2 12C2 10.6167 2.26267 9.31667 2.788 8.1C3.31267 6.88333 4.025 5.825 4.925 4.925C5.825 4.025 6.88333 3.31233 8.1 2.787C9.31667 2.26233 10.6167 2 12 2C13.3833 2 14.6833 2.26233 15.9 2.787C17.1167 3.31233 18.175 4.025 19.075 4.925C19.975 5.825 20.6873 6.88333 21.212 8.1C21.7373 9.31667 22 10.6167 22 12C22 13.3833 21.7373 14.6833 21.212 15.9C20.6873 17.1167 19.975 18.175 19.075 19.075C18.175 19.975 17.1167 20.6873 15.9 21.212C14.6833 21.7373 13.3833 22 12 22ZM12 20C14.2333 20 16.125 19.225 17.675 17.675C19.225 16.125 20 14.2333 20 12C20 9.76667 19.225 7.875 17.675 6.325C16.125 4.775 14.2333 4 12 4C9.76667 4 7.875 4.775 6.325 6.325C4.775 7.875 4 9.76667 4 12C4 14.2333 4.775 16.125 6.325 17.675C7.875 19.225 9.76667 20 12 20Z" fill="black"/>
</svg>
