<svg width="32" height="32" viewBox="0 0 32 32" fill="none" xmlns="http://www.w3.org/2000/svg">
<path d="M18.2408 26.925C16.7208 28.5083 14.9792 30.1391 13 31.8333C4.56083 24.6291 0.333328 18.4066 0.333328 13.15C0.333328 5.26496 6.35 0.166626 13 0.166626C19.3333 0.166626 25.0967 4.78996 25.6192 12.0416H31.2083L24.0833 19.1666L16.9583 12.0416H22.4525C21.9458 6.87996 17.9558 3.33329 13 3.33329C7.69583 3.33329 3.49999 7.40246 3.49999 13.15C3.49999 16.855 6.58749 21.7633 13 27.6216C14.0133 26.6875 14.9475 25.785 15.8025 24.9141C15.5239 24.3644 15.3775 23.7571 15.375 23.1408C15.375 22.091 15.792 21.0842 16.5344 20.3418C17.2767 19.5995 18.2835 19.1825 19.3333 19.1825C20.3831 19.1825 21.39 19.5995 22.1323 20.3418C22.8746 21.0842 23.2917 22.091 23.2917 23.1408C23.2911 23.7531 23.1481 24.3568 22.8739 24.9043C22.5997 25.4517 22.2018 25.9278 21.7118 26.295C21.2218 26.6621 20.6531 26.9101 20.0506 27.0195C19.4482 27.1288 18.8286 27.0965 18.2408 26.925Z" fill="white"/>
</svg>
