<svg width="24" height="24" viewBox="0 0 24 24" fill="none" xmlns="http://www.w3.org/2000/svg">
<path d="M11.325 15.325C11.5083 15.5083 11.7377 15.5957 12.013 15.587C12.2877 15.579 12.5167 15.4833 12.7 15.3C12.8833 15.1167 12.975 14.8833 12.975 14.6C12.975 14.3167 12.8833 14.0833 12.7 13.9L11.8 13H15.025C15.3083 13 15.5417 12.904 15.725 12.712C15.9083 12.5207 16 12.2833 16 12C16 11.7167 15.9043 11.479 15.713 11.287C15.521 11.0957 15.2833 11 15 11H11.8L12.725 10.075C12.9083 9.89167 12.996 9.66233 12.988 9.387C12.9793 9.11233 12.8833 8.88333 12.7 8.7C12.5167 8.51667 12.2833 8.425 12 8.425C11.7167 8.425 11.4833 8.51667 11.3 8.7L8.7 11.3C8.5 11.5 8.4 11.7333 8.4 12C8.4 12.2667 8.5 12.5 8.7 12.7L11.325 15.325ZM12 22C10.6167 22 9.31667 21.7373 8.1 21.212C6.88333 20.6873 5.825 19.975 4.925 19.075C4.025 18.175 3.31267 17.1167 2.788 15.9C2.26267 14.6833 2 13.3833 2 12C2 10.6167 2.26267 9.31667 2.788 8.1C3.31267 6.88333 4.025 5.825 4.925 4.925C5.825 4.025 6.88333 3.31233 8.1 2.787C9.31667 2.26233 10.6167 2 12 2C13.3833 2 14.6833 2.26233 15.9 2.787C17.1167 3.31233 18.175 4.025 19.075 4.925C19.975 5.825 20.6873 6.88333 21.212 8.1C21.7373 9.31667 22 10.6167 22 12C22 13.3833 21.7373 14.6833 21.212 15.9C20.6873 17.1167 19.975 18.175 19.075 19.075C18.175 19.975 17.1167 20.6873 15.9 21.212C14.6833 21.7373 13.3833 22 12 22ZM12 20C14.2167 20 16.1043 19.221 17.663 17.663C19.221 16.1043 20 14.2167 20 12C20 9.78333 19.221 7.89567 17.663 6.337C16.1043 4.779 14.2167 4 12 4C9.78333 4 7.896 4.779 6.338 6.337C4.77933 7.89567 4 9.78333 4 12C4 14.2167 4.77933 16.1043 6.338 17.663C7.896 19.221 9.78333 20 12 20Z" fill="#787878"/>
</svg>
